<?xml version="1.0" encoding="UTF-8" standalone="no"?>
<svg width="164px" height="30px" viewBox="0 0 164 30" version="1.1" xmlns="http://www.w3.org/2000/svg" xmlns:xlink="http://www.w3.org/1999/xlink">
    <!-- Generator: Sketch 41.1 (35376) - http://www.bohemiancoding.com/sketch -->
    <title>press-politico copy</title>
    <desc>Created with Sketch.</desc>
    <defs></defs>
    <g id="Lander" stroke="none" stroke-width="1" fill="none" fill-rule="evenodd">
        <g id="Artboard" transform="translate(-515.000000, -282.000000)" fill="#E7E6E6">
            <g id="press-politico-copy" transform="translate(515.000000, 282.000000)">
                <path d="M4.56361614,12.3580395 L5.72491968,12.3580395 C8.23835018,12.3580395 9.91487961,12.085514 10.7517814,11.5404558 C11.5886825,10.9926698 12.0084966,10.0279186 12.0084966,8.64619535 C12.0084966,7.1609093 11.5614222,6.11167674 10.6645473,5.50393256 C9.7703984,4.89346744 8.12385585,4.59096279 5.72491968,4.59096279 L4.56361614,4.59096279 L4.56361614,12.3580395 Z M4.27737961,16.0698837 L4.27737961,28.5789698 L0.0301718128,28.5789698 L0.0301718128,0.7047 L6.88622252,0.7047 C8.9171399,0.7047 10.4110229,0.816432558 11.3705973,1.03991163 C12.3301718,1.26065581 13.1643477,1.62584651 13.8758502,2.13274884 C14.7509165,2.78136977 15.4351587,3.65346279 15.9313027,4.75175581 C16.4274459,5.85004884 16.672792,7.06007442 16.672792,8.3791186 C16.672792,9.69815581 16.4274459,10.919086 15.9313027,12.0337326 C15.4351587,13.1511 14.7509165,14.0259209 13.8758502,14.6609093 C13.1643477,15.1705395 12.3301718,15.5302814 11.3705973,15.7455767 C10.4110229,15.9636 8.9171399,16.0698837 6.88622252,16.0698837 L4.27737961,16.0698837 Z" id="path3690"></path>
                <path d="M43.4781775,14.6990651 C43.4781775,13.2900907 43.2219271,11.9519721 42.7094271,10.6819884 C42.1942012,9.41200465 41.4554378,8.28373256 40.4904115,7.29445116 C39.5499197,6.31607442 38.46222,5.5638907 37.2245867,5.03790698 C35.9869541,4.51193023 34.6811693,4.24757442 33.309959,4.24757442 C31.9387495,4.24757442 30.6356906,4.50920233 29.3953314,5.0270093 C28.1604246,5.54753721 27.056369,6.30244186 26.091342,7.29445116 C25.1263158,8.27010698 24.3902782,9.39565116 23.8832307,10.662907 C23.3761825,11.9328977 23.1226587,13.279186 23.1226587,14.6990651 C23.1226587,16.1080395 23.3761825,17.4407093 23.8832307,18.6970674 C24.3902782,19.9534256 25.1263158,21.0789698 26.091342,22.0682512 C27.056369,23.0575326 28.1549729,23.8124372 29.3871537,24.3329651 C30.6193346,24.8535 31.9251186,25.1124 33.309959,25.1124 C34.6675392,25.1124 35.9596931,24.8535 37.1864222,24.3329651 C38.4104246,23.8124372 39.5117544,23.0575326 40.4904115,22.0682512 C41.4554378,21.0789698 42.1942012,19.9506977 42.7094271,18.6888907 C43.2219271,17.4243558 43.4781775,16.0971419 43.4781775,14.6990651 M48.2024459,14.6990651 C48.2024459,16.6803488 47.8317012,18.5526279 47.087486,20.3158884 C46.3459966,22.0791558 45.2637495,23.6543721 43.8407438,25.0388163 C42.4068346,26.4205395 40.7875523,27.4806767 38.9856243,28.216507 C37.1836963,28.9523372 35.2918076,29.3202488 33.309959,29.3202488 C31.3035761,29.3202488 29.3898796,28.9496093 27.568869,28.2083302 C25.7478583,27.4643302 24.1367544,26.406914 22.7410098,25.0388163 C21.3180048,23.6543721 20.2384835,22.0873256 19.5024459,20.3349698 C18.766409,18.582607 18.3983902,16.7048791 18.3983902,14.6990651 C18.3983902,12.7068767 18.766409,10.8291558 19.5024459,9.06316744 C20.2384835,7.2999 21.3180048,5.71923488 22.7410098,4.32388605 C24.1612888,2.93943488 25.7751186,1.88747442 27.5770473,1.16254884 C29.3817012,0.440344186 31.2899459,0.0778813953 33.309959,0.0778813953 C35.316342,0.0778813953 37.216409,0.440344186 39.0128846,1.16254884 C40.8093608,1.88747442 42.4204647,2.93943488 43.8407438,4.32388605 C45.2637495,5.73286047 46.3459966,7.32170233 47.087486,9.09313953 C47.8317012,10.8618558 48.2024459,12.731407 48.2024459,14.6990651" id="path3692"></path>
                <polygon id="path3694" points="52.23157 28.5789698 52.23157 0.70742093 56.7622898 0.70742093 56.7622898 24.5237372 66.8950682 24.5237372 66.8950682 28.5789698"></polygon>
                <polygon id="path3696" points="69.4766515 0.70742093 74.0100931 0.70742093 74.0100931 28.5789698 69.4766515 28.5789698"></polygon>
                <polygon id="path3698" points="88.3600931 4.55280698 88.3600931 28.5789698 83.8266446 28.5789698 83.8266446 4.55280698 76.41993 4.55280698 76.41993 0.70742093 95.7313697 0.70742093 95.7313697 4.55280698"></polygon>
                <polygon id="path3700" points="98.1030469 0.70742093 102.63376 0.70742093 102.63376 28.5789698 98.1030469 28.5789698"></polygon>
                <path d="M130.355105,7.48522326 C129.071132,6.39237907 127.716276,5.57479535 126.287815,5.0270093 C124.859361,4.48195116 123.357302,4.2094186 121.784361,4.2094186 C118.73662,4.2094186 116.258629,5.18780233 114.347659,7.14183488 C112.436689,9.09586744 111.482565,11.6276651 111.482565,14.7372209 C111.482565,17.7459419 112.412152,20.2259581 114.271325,22.1827116 C116.130506,24.1367442 118.477646,25.1124 121.307302,25.1124 C122.959292,25.1124 124.529504,24.820793 126.020662,24.237586 C127.51182,23.6543721 128.945731,22.7713744 130.316939,21.5913279 L130.316939,26.7121465 C129.098391,27.5869674 127.770793,28.2437581 126.336889,28.6743558 C124.900249,29.1049535 123.346395,29.3202488 121.669868,29.3202488 C119.538084,29.3202488 117.564411,28.9714116 115.757033,28.2737372 C113.946926,27.5760628 112.357634,26.5486326 110.986419,25.1887116 C109.628841,23.8560419 108.582033,22.2862744 107.854173,20.4794093 C107.123591,18.6698163 106.758297,16.7430349 106.758297,14.6990651 C106.758297,12.6550953 107.123591,10.7364907 107.854173,8.94052326 C108.582033,7.14456279 109.639749,5.5666186 111.024586,4.2094186 C112.40943,2.8386 113.995994,1.80026512 115.784292,1.09714186 C117.575318,0.391290698 119.510825,0.0397255814 121.593535,0.0397255814 C123.231902,0.0397255814 124.793935,0.276830233 126.279643,0.753753488 C127.765343,1.23067674 129.204705,1.95015349 130.603178,2.91491163 L130.355105,7.48522326 Z" id="path3702"></path>
                <path d="M158.665281,14.6990651 C158.665281,13.2900907 158.406301,11.9519721 157.893804,10.6819884 C157.378579,9.41200465 156.639811,8.28373256 155.674786,7.29445116 C154.734292,6.31607442 153.646595,5.5638907 152.40896,5.03790698 C151.171325,4.51193023 149.865543,4.24757442 148.494336,4.24757442 C147.123121,4.24757442 145.820068,4.50920233 144.579705,5.0270093 C143.344799,5.54753721 142.240744,6.30244186 141.275719,7.29445116 C140.313416,8.27010698 139.574655,9.39565116 139.067602,10.662907 C138.560556,11.9328977 138.307033,13.279186 138.307033,14.6990651 C138.307033,16.1080395 138.560556,17.4407093 139.067602,18.6970674 C139.574655,19.9534256 140.313416,21.0789698 141.275719,22.0682512 C142.240744,23.0575326 143.339348,23.8124372 144.571526,24.3329651 C145.80371,24.8535 147.109492,25.1124 148.494336,25.1124 C149.851914,25.1124 151.144067,24.8535 152.370793,24.3329651 C153.594799,23.8124372 154.696132,23.0575326 155.674786,22.0682512 C156.639811,21.0789698 157.378579,19.9506977 157.893804,18.6888907 C158.406301,17.4243558 158.665281,16.0971419 158.665281,14.6990651 M163.38682,14.6990651 C163.38682,16.6803488 163.016075,18.5526279 162.271857,20.3158884 C161.530368,22.0791558 160.448121,23.6543721 159.025118,25.0388163 C157.591207,26.4205395 155.971926,27.4806767 154.169999,28.216507 C152.368072,28.9523372 150.476182,29.3202488 148.494336,29.3202488 C146.487953,29.3202488 144.574254,28.9496093 142.75324,28.2083302 C140.929504,27.4643302 139.321132,26.406914 137.925387,25.0388163 C136.502377,23.6543721 135.422859,22.0873256 134.68682,20.3349698 C133.950781,18.582607 133.582765,16.7048791 133.582765,14.6990651 C133.582765,12.7068767 133.950781,10.8291558 134.68682,9.06316744 C135.422859,7.2999 136.502377,5.71923488 137.925387,4.32388605 C139.345662,2.93943488 140.959492,1.88747442 142.761419,1.16254884 C144.566075,0.440344186 146.477045,0.0778813953 148.494336,0.0778813953 C150.500719,0.0778813953 152.400781,0.440344186 154.197258,1.16254884 C155.993735,1.88747442 157.604836,2.93943488 159.025118,4.32388605 C160.448121,5.73286047 161.530368,7.32170233 162.271857,9.09313953 C163.016075,10.8618558 163.38682,12.731407 163.38682,14.6990651" id="path3704"></path>
            </g>
        </g>
    </g>
</svg>