<?xml version="1.0" encoding="UTF-8" standalone="no"?>
<svg width="125px" height="40px" viewBox="0 0 125 40" version="1.1" xmlns="http://www.w3.org/2000/svg" xmlns:xlink="http://www.w3.org/1999/xlink">
    <!-- Generator: Sketch 41.1 (35376) - http://www.bohemiancoding.com/sketch -->
    <title>press-vice copy</title>
    <desc>Created with Sketch.</desc>
    <defs></defs>
    <g id="Lander" stroke="none" stroke-width="1" fill="none" fill-rule="evenodd">
        <g id="Artboard" transform="translate(-325.000000, -277.000000)">
            <g id="press-vice-copy" transform="translate(325.000000, 277.000000)">
                <g id="Group">
                    <path d="M77.4075281,0.605845614 C73.1986376,0.815964912 69.3816327,2.25632281 66.2790274,3.63047719 C65.4036412,4.01821754 63.8943645,5.15204211 63.0575456,5.18684912 C62.0715625,5.22895439 60.2753195,4.2354807 58.9426931,3.85167018 C53.0477704,2.15622456 44.0786636,-0.049754386 39.4858167,3.51861754 C33.7175337,2.68253333 28.4000246,4.11232281 24.0317851,5.40804211 C23.7851601,1.95905263 20.5616931,-0.106449123 16.8047914,0.962933333 C14.291356,1.6770386 12.22925,3.09486316 9.68980267,4.07555088 C4.71624853,5.99295439 -0.307314073,10.0768842 0.0146992978,16.5180772 C0.167373455,19.5481123 1.48677022,22.0143579 2.35080393,24.1823579 C3.25218596,26.4441825 4.19621763,28.2483228 5.68695569,30.850007 C5.27694586,31.6148491 4.91225274,32.1011649 4.79624853,32.9606035 C3.83019726,40.1811649 13.4859382,40.4183579 18.5835379,38.2930947 C22.9804508,36.4569544 27.5885948,33.2071298 30.704085,30.850007 C28.204559,41.5416561 45.0093729,42.014007 49.2702563,36.6275509 C55.2617802,41.1012351 68.2109515,40.6049544 74.6180688,36.8487439 C80.5348385,41.6109193 93.6596699,39.796814 101.635281,37.9599719 C105.76014,37.0099368 109.397037,36.2444632 112.089087,34.2956912 C114.84394,32.2970246 116.568567,29.236393 117.31066,25.2963228 C116.745211,23.7866386 115.779354,22.6833404 114.865225,21.5174456 C115.320611,20.5606737 115.452465,18.8245333 115.201236,17.5174456 C118.687261,15.0230596 121.59019,11.1376561 124.206966,7.8517614 C124.519122,7.45814737 125.115653,6.94362105 124.980344,6.40741053 C113.053961,4.55056842 101.552542,0.846392982 87.7386587,1.51990877 C86.8665169,1.56138246 85.8792275,1.81368421 85.0692065,1.74109474 C83.8790941,1.63381053 82.8538062,1.04299649 81.7357233,0.853677193 C80.2576404,0.602189474 78.8104846,0.535796491 77.4075281,0.605845614 L77.4075281,0.605845614 Z" id="Shape" fill="#D0CDCD"></path>
                    <path d="M78.1387149,4.98629389 C72.7440239,5.09464477 67.7000358,7.78190386 63.7248181,9.96162246 C59.4859487,12.2854119 55.7019424,15.0149081 53.0484663,17.738487 C54.0078272,16.104873 55.0271369,14.4902147 56.163316,12.9632674 C57.3153736,11.4128814 58.5979909,10.0105088 59.61146,8.62938596 C57.3952521,8.05036842 55.1728603,7.43699789 52.937368,6.9613487 C49.7599249,6.28576975 45.3416615,5.16597368 42.7095218,6.62828947 C41.9481433,7.05074596 41.3260737,8.09067298 40.5972942,8.18393614 C39.9960084,8.26239228 39.0027381,7.82519509 38.2614993,7.7425986 C35.5447037,7.44070386 33.0464522,7.69025474 30.5916433,8.18393614 C28.2923174,8.64428702 23.4298834,9.46239439 22.8079466,11.6282891 C22.4085681,13.0186758 23.297236,14.3651144 23.1412395,15.7401319 C22.988486,17.0933249 21.6890084,18.8809537 21.0290112,19.9602519 C20.2210386,21.2827081 19.3993645,22.4552281 18.0266306,23.0701754 C17.1945927,18.9308772 18.0989171,15.2530681 18.8043146,11.7420505 C19.240217,9.57889263 20.1193167,7.36492982 19.3625463,5.18640351 C17.2431124,4.89187719 15.4585864,6.56869298 13.3591559,7.4067986 C9.4156552,8.98448211 5.02322191,10.4199382 4.46585323,14.9616225 C4.1518448,17.5186049 5.11231777,19.1472611 5.79902563,20.9635418 C7.27041011,24.8655768 9.08816994,28.16684 11.2469277,31.18284 C10.6582374,32.2634014 9.27196138,32.5456337 9.13195646,34.069353 C9.75932093,34.9574232 11.0685506,35.0712716 12.359276,35.0712716 C16.0901138,35.0631312 19.1484368,33.1858288 21.919165,31.6255481 C27.9528455,28.2343902 32.0056334,23.0109846 36.2617409,18.071546 C37.0091243,17.2034056 37.6246917,16.1582014 38.5975358,15.6304828 C39.5534824,20.0189039 37.6941931,22.3630786 36.371467,25.9594302 C35.8620042,27.3451846 34.2521636,31.6823291 35.0369228,33.736294 C35.8949038,35.9961537 43.2143048,36.0942477 45.1550428,34.6285635 C46.1324986,33.8910196 46.5245344,32.2201733 47.0491903,31.18284 C47.7185794,29.8483839 48.2968006,28.6956751 48.825382,27.5164477 C48.8554242,32.3832547 52.4739951,33.8126007 56.3855119,34.8492323 C64.7005962,37.0457937 73.0826966,33.1219495 77.617514,30.4070723 C77.0508778,34.0126863 78.4558708,34.3733425 81.2905969,34.9616225 C88.6229424,36.473974 96.0049579,34.7293046 101.968483,33.2935853 C107.435534,31.9784274 111.833448,31.0474232 112.643469,25.6263705 C111.768757,24.87016 109.580295,24.9638028 108.082978,25.1836625 C103.674621,25.8285747 99.4051194,28.05652 93.5195787,27.6274674 C92.4460393,27.5488709 90.1277598,27.1749207 89.9603371,26.51864 C89.7022753,25.4920442 91.5391222,24.7740351 93.0779284,24.5175439 C97.4893399,23.7713684 103.866362,24.5251649 107.41639,23.1825656 C109.123139,22.5396884 111.178209,20.6833839 110.971517,18.6280154 C110.836201,17.240226 109.025344,16.5143951 107.305288,16.4089909 C102.440386,16.1045705 98.9625281,18.9405635 93.855611,17.9618968 C94.4944382,17.1550196 94.6088062,15.8291733 95.4109761,15.185033 C99.1444733,15.1070681 102.77177,15.8496407 106.305414,15.6304828 C111.218954,15.3233249 113.990407,13.2550414 116.313806,10.5194625 C116.561966,10.2244449 117.185723,9.90621053 116.980393,9.40789474 C108.446678,8.11084211 96.8124368,4.67382014 86.2927388,5.96217109 C84.9309831,6.12666232 83.9529354,7.54753263 83.0585604,8.10718175 C83.0599649,8.09525193 83.0709902,8.0911607 83.0667767,8.07291509 C83.2374508,7.31410807 83.5589607,6.71055565 83.6236376,5.85252056 C81.7740801,5.20143284 79.9369312,4.95117186 78.1387008,4.98766309 L78.1387008,4.98629467 L78.1387149,4.98629389 Z M82.2904775,10.4070723 C83.3297121,11.5909319 85.6046699,11.5400989 86.9579494,12.4081691 C85.131236,12.8772218 82.830927,12.8748204 81.1753862,13.5169958 C81.5653792,12.4984695 81.9163553,11.440967 82.2904775,10.4070723 Z M69.3908006,14.5161733 C68.8441292,17.0086646 67.6998272,19.8625881 67.0577486,22.6260968 C70.5919031,22.6759916 74.3195506,21.9577656 77.9535534,21.7393095 C78.4449228,21.0824674 78.6859902,20.1769081 78.9548034,19.2955046 C79.6827317,20.3268028 80.1964115,22.2540154 79.5116643,23.7376646 C73.9927388,23.661033 70.0244803,28.1755481 64.6122275,28.1825656 C62.1874593,28.1852323 60.1285969,26.7903025 61.2765534,24.0707235 C62.8974459,20.2332498 66.9160183,17.5528751 69.3908006,14.5161733 Z" id="Shape" fill="#FFFFFF"></path>
                </g>
            </g>
        </g>
    </g>
</svg>