<?xml version="1.0" encoding="UTF-8" standalone="no"?>
<svg width="154px" height="28px" viewBox="0 0 154 28" version="1.1" xmlns="http://www.w3.org/2000/svg" xmlns:xlink="http://www.w3.org/1999/xlink">
    <!-- Generator: Sketch 41.1 (35376) - http://www.bohemiancoding.com/sketch -->
    <title>press-mashable copy</title>
    <desc>Created with Sketch.</desc>
    <defs></defs>
    <g id="Lander" stroke="none" stroke-width="1" fill="none" fill-rule="evenodd">
        <g id="Artboard" transform="translate(-115.000000, -279.000000)" fill="#E7E6E6">
            <g id="press-mashable-copy" transform="translate(115.000000, 277.000000)">
                <g id="Page-1">
                    <g id="Mashable">
                        <g id="layer1" transform="translate(0.008433, 0.063432)">
                            <g id="g13734" transform="translate(15.025325, 15.050652) scale(1, -1) translate(-15.025325, -15.050652) translate(0.025325, 1.550652)">
                                <polygon id="path13736" points="22.6301152 0 22.6301152 17.2780302 16.1403644 0 13.2020081 0 6.6699788 17.2780302 6.6699788 0 0.0216835532 0 0.0216835532 26.1286677 9.25953732 26.1286677 14.6711863 11.7115578 20.0405566 26.1286677 29.2784104 26.1286677 29.2784104 0"></polygon>
                            </g>
                            <g id="g13738" transform="translate(79.384021, 14.632265) scale(1, -1) translate(-79.384021, -14.632265) translate(30.384021, 0.132265)">
                                <g id="g13740-Clipped">
                                    <g id="g13740" transform="translate(0.010670, 0.031677)">
                                        <g id="g13746" transform="translate(0.023264, 0.064094)">
                                            <path d="M12.250186,0.485733865 L12.250186,2.36622647 C11.0928119,0.957196397 8.84676618,0.0142713397 6.45274573,0.0142713397 C3.59366172,0.0142713397 0.0369822967,2.01262955 0.0369822967,6.24507724 C0.0369822967,10.8257644 3.59366172,12.3580176 6.45274573,12.3580176 C8.9260384,12.3580176 11.1298056,11.5329581 12.250186,10.1239281 L12.250186,12.0044206 C12.250186,13.649182 10.8602801,14.7849781 8.46097485,14.7849781 C6.60600532,14.7849781 4.75103584,14.0402816 3.24486402,12.7491172 L1.04109684,16.9387046 C3.44040214,19.0174258 6.64828385,19.8746304 9.50736785,19.8746304 C13.9888896,19.8746304 18.2008859,18.1923663 18.2008859,12.3151573 L18.2008859,0.485733865 L12.250186,0.485733865 L12.250186,0.485733865 Z M12.250186,5.34501244 L12.250186,7.02727647 C11.6318629,7.92734128 10.241957,8.36130109 8.9260384,8.36130109 C7.38287289,8.36130109 5.95068849,7.65410731 5.95068849,6.16471436 C5.95068849,4.67532135 7.38287289,3.97348506 8.9260384,3.97348506 C10.241957,3.97348506 11.6318629,4.43959006 12.250186,5.34501244 L12.250186,5.34501244 Z" id="path13748"></path>
                                        </g>
                                        <g id="g13750" transform="translate(18.646935, 0.031771)">
                                            <path d="M0,2.98573387 L2.47329266,7.29318699 C3.86319858,6.03952526 6.8385485,4.74836083 9.04231569,4.74836083 C10.818013,4.74836083 11.552602,5.25732603 11.552602,6.08238545 C11.552602,8.42898308 0.697595367,6.00202256 0.697595367,13.6793612 C0.697595367,17.0117441 3.5566794,19.9101672 8.69351804,19.9101672 C11.8644061,19.9101672 14.4909583,18.8922367 16.4991874,17.4028437 L14.2214328,13.1328933 C13.1010523,14.2311867 10.9765574,15.2062569 8.73579651,15.2062569 C7.3406058,15.2062569 6.41576342,14.659789 6.41576342,13.9150925 C6.41576342,11.8417288 17.2337764,13.9954554 17.2337764,6.23775378 C17.2337764,2.63213697 14.1051669,0.0498081218 8.77279019,0.0498081218 C5.4116489,0.0498081218 1.97123539,1.18560421 0,2.98573387" id="path13752"></path>
                                        </g>
                                        <g id="g13754" transform="translate(36.595998, 0.549827)">
                                            <path d="M12.6928137,0 L12.6928137,11.0097215 C12.6928137,13.3188165 11.4931611,14.0635129 9.60119791,14.0635129 C7.86249427,14.0635129 6.70512015,13.0830852 6.0075248,12.2205231 L6.0075248,0 L0.0568249234,0 L0.0568249234,26.1286677 L6.0075248,26.1286677 L6.0075248,16.6083391 C7.12790523,17.9423637 9.33167241,19.3888965 12.4602819,19.3888965 C16.7092719,19.3888965 18.6435136,16.961936 18.6435136,13.4741848 L18.6435136,0 L12.6928137,0 L12.6928137,0 Z" id="path13756"></path>
                                        </g>
                                        <g id="g13758" transform="translate(56.049156, 0.064094)">
                                            <path d="M12.250186,0.485733865 L12.250186,2.36622647 C11.0928119,0.957196397 8.84676618,0.0142713397 6.45274573,0.0142713397 C3.59366172,0.0142713397 0.0369822967,2.01262955 0.0369822967,6.24507724 C0.0369822967,10.8257644 3.59366172,12.3580176 6.45274573,12.3580176 C8.9260384,12.3580176 11.1298056,11.5329581 12.250186,10.1239281 L12.250186,12.0044206 C12.250186,13.649182 10.8602801,14.7849781 8.46097485,14.7849781 C6.60600532,14.7849781 4.75103584,14.0402816 3.24486402,12.7491172 L1.04109684,16.9387046 C3.44040214,19.0174258 6.64828385,19.8746304 9.50736785,19.8746304 C13.9888896,19.8746304 18.2008859,18.1923663 18.2008859,12.3151573 L18.2008859,0.485733865 L12.250186,0.485733865 L12.250186,0.485733865 Z M12.250186,5.34501244 L12.250186,7.02727647 C11.6318629,7.92734128 10.241957,8.36130109 8.9260384,8.36130109 C7.38287289,8.36130109 5.95068849,7.65410731 5.95068849,6.16471436 C5.95068849,4.67532135 7.38287289,3.97348506 8.9260384,3.97348506 C10.241957,3.97348506 11.6318629,4.43959006 12.250186,5.34501244 L12.250186,5.34501244 Z" id="path13760"></path>
                                        </g>
                                        <g id="g13762" transform="translate(76.295265, 0.064094)">
                                            <path d="M0,0.485733865 L0,26.6144015 L5.95069986,26.6144015 L5.95069986,17.1744359 C7.41987796,19.0549285 9.42810708,19.8746304 11.4786147,19.8746304 C16.1556745,19.8746304 19.7070691,16.1565054 19.7070691,9.96320218 C19.7070691,3.53952526 16.0764023,0.0142713397 11.4786147,0.0142713397 C9.39111339,0.0142713397 7.49915017,0.876833468 5.95069986,2.67696314 L5.95069986,0.485733865 L0,0.485733865 L0,0.485733865 Z M9.5073793,5.34501244 C11.8644061,5.34501244 13.6401033,7.10763936 13.6401033,9.96320218 C13.6401033,12.7866199 11.8644061,14.5492468 9.5073793,14.5492468 C8.23373928,14.5492468 6.68528892,13.842053 5.95069986,12.8241226 L5.95069986,7.02727647 C6.68528892,6.00934603 8.23373928,5.34501244 9.5073793,5.34501244 L9.5073793,5.34501244 Z" id="path13764"></path>
                                        </g>
                                    </g>
                                </g>
                            </g>
                            <polygon id="path13766" points="127.093914 2.42262758 133.044617 2.42262758 133.044617 28.5512953 127.093914 28.5512953"></polygon>
                            <g id="g13776" transform="translate(143.892307, 19.080328) scale(1, -1) translate(-143.892307, -19.080328) translate(133.892307, 9.080328)">
                                <path d="M0,10.0099293 C0,15.4960387 4.05873667,19.9213574 9.89317063,19.9213574 C15.4210854,19.9213574 19.4375436,15.8067754 19.4375436,9.3830984 L19.4375436,8.01157103 L6.14623796,8.01157103 C6.56902301,6.32930705 8.11747337,4.91491944 10.818013,4.91491944 C12.1339315,4.91491944 14.300705,5.5042476 15.378807,6.52217808 L17.9683655,2.56832185 C16.113396,0.880700301 13.0217802,0.0609984038 10.1626961,0.0609984038 C4.40753436,0.0609984038 0,3.85948628 0,10.0099293 M9.89317063,15.0620788 C7.30361212,15.0620788 6.29949755,13.4976805 6.06696576,12.1261531 L13.7563692,12.1261531 C13.6031096,13.4601778 12.6359888,15.0620788 9.89317063,15.0620788" id="path13778"></path>
                            </g>
                        </g>
                    </g>
                </g>
            </g>
        </g>
    </g>
</svg>