<?xml version="1.0" encoding="UTF-8" standalone="no"?>
<svg width="215px" height="48px" viewBox="0 0 215 48" version="1.1" xmlns="http://www.w3.org/2000/svg" xmlns:xlink="http://www.w3.org/1999/xlink">
    <!-- Generator: Sketch 41.1 (35376) - http://www.bohemiancoding.com/sketch -->
    <title>Group</title>
    <desc>Created with Sketch.</desc>
    <defs></defs>
    <g id="Page-1" stroke="none" stroke-width="1" fill="none" fill-rule="evenodd">
        <g id="Artboard-Copy-15" transform="translate(-51.000000, -40.000000)" fill="#FF5D5B">
            <g id="Group" transform="translate(51.000000, 40.000000)">
                <path d="M0,10.0017433 C0,8.89621101 0.886706352,8 1.99810135,8 L6.00189865,8 C7.10541955,8 8,8.88926172 8,10.0017433 L8,37.9982567 C8,39.103789 7.11329365,40 6.00189865,40 L1.99810135,40 C0.894580447,40 0,39.1107383 0,37.9982567 L0,10.0017433 Z M24,14.0049466 C24,12.8976452 24.8867064,12 25.9981014,12 L30.0018986,12 C31.1054196,12 32,12.8970262 32,14.0049466 L32,33.9950534 C32,35.1023548 31.1132936,36 30.0018986,36 L25.9981014,36 C24.8945804,36 24,35.1029738 24,33.9950534 L24,14.0049466 Z M12,2.00138927 C12,0.896052496 12.8867064,0 13.9981014,0 L18.0018986,0 C19.1054196,0 20,0.894938439 20,2.00138927 L20,45.9986107 C20,47.1039475 19.1132936,48 18.0018986,48 L13.9981014,48 C12.8945804,48 12,47.1050616 12,45.9986107 L12,2.00138927 Z" id="Combined-Shape"></path>
                <path d="M42.6321152,35.6666667 L45.5259798,35.6666667 C46.0581847,35.6666667 46.35755,35.3333333 46.4906013,35 L48.120479,31.4 L58.0660594,31.4 L59.6959371,35 C59.9287768,35.4666667 60.1616165,35.6666667 60.6605586,35.6666667 L63.5544231,35.6666667 C64.0533653,35.6666667 64.3194678,35.2333333 64.1198909,34.8 L53.8749452,12.3666667 C53.7751568,12.1666667 53.6421056,12 53.3094775,12 L52.9768494,12 C52.6774841,12 52.51117,12.1666667 52.4113816,12.3666667 L42.0666475,34.8 C41.8670706,35.2333333 42.1331731,35.6666667 42.6321152,35.6666667 Z M49.7503567,27.7 L53.0101122,20.3666667 L53.1099006,20.3666667 L56.4361817,27.7 L49.7503567,27.7 Z M65.6167174,34.9 C65.5501918,35.3666667 65.8162943,35.6666667 66.2487108,35.6666667 L69.2423638,35.6666667 C69.5417291,35.6666667 69.8078315,35.4 69.8410943,35.1666667 L71.7703374,22.5333333 L71.8701258,22.5333333 L77.7576433,35.6333333 C77.8574317,35.8333333 78.0237458,36 78.3231111,36 L78.9218417,36 C79.2212069,36 79.4207838,35.8333333 79.4873094,35.6333333 L85.3083013,22.5333333 L85.4080897,22.5333333 L87.3705956,35.1666667 C87.4371212,35.4 87.7032237,35.6666667 88.002589,35.6666667 L91.0295047,35.6666667 C91.4619213,35.6666667 91.7280238,35.3666667 91.6282353,34.9 L87.7032237,12.5 C87.6699609,12.2333333 87.470384,12 87.1044931,12 L86.5722881,12 C86.2729228,12 86.1066088,12.1333333 86.0068203,12.3333333 L78.689002,28.0666667 L78.5892135,28.0666667 L71.2713952,12.3333333 C71.1716068,12.1333333 70.9720299,12 70.7059274,12 L70.1737225,12 C69.8078315,12 69.6082547,12.2333333 69.5749919,12.5 L65.6167174,34.9 Z M96.1852404,35.0333333 C96.1852404,35.3666667 96.4513429,35.6666667 96.8172338,35.6666667 L99.8774124,35.6666667 C100.21004,35.6666667 100.509406,35.3666667 100.509406,35.0333333 L100.509406,27.2 L104.667257,27.2 C108.72532,27.2 112.084864,23.8333333 112.084864,19.7 C112.084864,15.6666667 108.72532,12.3333333 104.633994,12.3333333 L96.8172338,12.3333333 C96.4513429,12.3333333 96.1852404,12.6333333 96.1852404,12.9666667 L96.1852404,35.0333333 Z M100.509406,23.1333333 L100.509406,16.4333333 L104.367892,16.4333333 C106.230609,16.4333333 107.793961,17.8333333 107.793961,19.6666667 C107.793961,21.6333333 106.230609,23.1333333 104.367892,23.1333333 L100.509406,23.1333333 Z M115.876824,35.0333333 C115.876824,35.3666667 116.142927,35.6666667 116.508818,35.6666667 L128.683006,35.6666667 C129.048897,35.6666667 129.315,35.3666667 129.315,35.0333333 L129.315,32.3 C129.315,31.9666667 129.048897,31.6666667 128.683006,31.6666667 L120.20099,31.6666667 L120.20099,12.9666667 C120.20099,12.6333333 119.901624,12.3333333 119.568996,12.3333333 L116.508818,12.3333333 C116.142927,12.3333333 115.876824,12.6333333 115.876824,12.9666667 L115.876824,35.0333333 Z M132.674544,35.0333333 C132.674544,35.3666667 132.973909,35.6666667 133.306537,35.6666667 L136.399978,35.6666667 C136.732607,35.6666667 137.031972,35.3666667 137.031972,35.0333333 L137.031972,12.9666667 C137.031972,12.6333333 136.732607,12.3333333 136.399978,12.3333333 L133.306537,12.3333333 C132.973909,12.3333333 132.674544,12.6333333 132.674544,12.9666667 L132.674544,35.0333333 Z M143.085803,35.0333333 C143.085803,35.3666667 143.351906,35.6666667 143.717797,35.6666667 L146.777975,35.6666667 C147.110603,35.6666667 147.409969,35.3666667 147.409969,35.0333333 L147.409969,26.6 L155.625883,26.6 C155.958511,26.6 156.257876,26.3 156.257876,25.9666667 L156.257876,23.2333333 C156.257876,22.9 155.958511,22.6 155.625883,22.6 L147.409969,22.6 L147.409969,16.3333333 L157.255761,16.3333333 C157.621652,16.3333333 157.887754,16.0333333 157.887754,15.7 L157.887754,12.9666667 C157.887754,12.6333333 157.621652,12.3333333 157.255761,12.3333333 L143.717797,12.3333333 C143.351906,12.3333333 143.085803,12.6333333 143.085803,12.9666667 L143.085803,35.0333333 Z M166.303245,35.0333333 C166.303245,35.3666667 166.569348,35.6666667 166.935239,35.6666667 L169.995417,35.6666667 C170.328045,35.6666667 170.627411,35.3666667 170.627411,35.0333333 L170.627411,24.4 L178.31112,13.3 C178.577222,12.8666667 178.31112,12.3333333 177.778915,12.3333333 L174.352845,12.3333333 C174.086743,12.3333333 173.920429,12.5 173.82064,12.6333333 L168.498591,20.3 L163.176541,12.6333333 C163.076753,12.5 162.910439,12.3333333 162.644336,12.3333333 L159.251529,12.3333333 C158.719324,12.3333333 158.453222,12.8666667 158.719324,13.3 L166.303245,24.4333333 L166.303245,35.0333333 Z M186.12788,35.6666667 L189.021745,35.6666667 C189.55395,35.6666667 189.853315,35.3333333 189.986366,35 L191.616244,31.4 L201.561824,31.4 L203.191702,35 C203.424542,35.4666667 203.657382,35.6666667 204.156324,35.6666667 L207.050188,35.6666667 C207.54913,35.6666667 207.815233,35.2333333 207.615656,34.8 L197.37071,12.3666667 C197.270922,12.1666667 197.137871,12 196.805243,12 L196.472614,12 C196.173249,12 196.006935,12.1666667 195.907147,12.3666667 L185.562413,34.8 C185.362836,35.2333333 185.628938,35.6666667 186.12788,35.6666667 Z M193.246122,27.7 L196.505877,20.3666667 L196.605666,20.3666667 L199.931947,27.7 L193.246122,27.7 Z M210.642572,35.0333333 C210.642572,35.3666667 210.941937,35.6666667 211.274565,35.6666667 L214.368007,35.6666667 C214.700635,35.6666667 215,35.3666667 215,35.0333333 L215,12.9666667 C215,12.6333333 214.700635,12.3333333 214.368007,12.3333333 L211.274565,12.3333333 C210.941937,12.3333333 210.642572,12.6333333 210.642572,12.9666667 L210.642572,35.0333333 Z" id="AMPLIFY-AI"></path>
            </g>
        </g>
    </g>
</svg>